/* XPM */
static char *_98f71a5da5943ed8421b3d49663bacdnt9UZPIu2LqD7TdX[] = {
/* columns rows colors chars-per-pixel */
"49 24 2 1 ",
"  c None",
". c white",
/* pixels */
"                                     ....        ",
"    .........    .........        ..........     ",
" ............ ............      .............    ",
" ............ ............      ..............   ",
" ............ ............     ................  ",
" ............ ............    .................. ",
" ............ ............    .................. ",
" ............ ............    .......   ........ ",
" ...  ....... ...  .......   ........    ........",
"      .......      .......   ........    ........",
"      .......      .......   .......     ........",
"      .......      .......   .......     ........",
"      .......      .......   .......     ........",
"      .......      .......   .......     ........",
"      .......      .......   .......     ........",
"      .......      .......   ........    ........",
"      .......      .......   ........    ....... ",
"      .......      .......    .................. ",
"      .......      .......    .................. ",
"      .......      .......     ................  ",
"      .......      .......     ...............   ",
"      .......      .......      .............    ",
"      .......      .......        ..........     ",
"      ......       .......          ......       "
};
