/* XPM */
static char *_3e61613b086451bdd82008617f483d5RJdgALJDAGXhktkd[] = {
/* columns rows colors chars-per-pixel */
"38 24 2 1 ",
"  c None",
". c white",
/* pixels */
"                         .....        ",
".................     ..........      ",
".................    .............    ",
".................   ...............   ",
".................  .................  ",
".................  .................  ",
"................  ..................  ",
"        ........  ........   ........ ",
"        .......   .......    ........ ",
"       ........   .......     ....... ",
"       ........  ........     ....... ",
"       .......   ........     ....... ",
"      ........   ........     ....... ",
"      ........   ........     ....... ",
"      .......     .......     ....... ",
"     ........     .......     ....... ",
"     .......      ........   ........ ",
"    ........      ..................  ",
"    ........       .................  ",
"    .......        .................  ",
"   ........         ...............   ",
"   .......           .............    ",
"   .......            ...........     ",
"   ......               ......        "
};
