/* XPM */
static char *ce3330e65feb47a0bbbf425a0c8c3b00jU14UVUPZMUmiZNp[] = {
/* columns rows colors chars-per-pixel */
"39 24 2 1 ",
"  c None",
". c white",
/* pixels */
"       ....               .....        ",
"    ..........          ..........     ",
"   ............       .............    ",
"  ..............     ...............   ",
" ................    ................  ",
".................   .................  ",
".................   .................. ",
"........  ........ ........   ........ ",
".......   ........ ........    ....... ",
".......   ........ .......     ........",
".................  .......     ........",
".................  .......     ........",
" ................  .......     ........",
" ...............   .......     ........",
"  ..............   .......     ........",
"   ............    ........    ........",
"     .........     ........   ........ ",
"      ........      .................. ",
"     ........       .................. ",
"    ........         ................  ",
"    ........         ...............   ",
"   ........           .............    ",
"   ........            ...........     ",
"   .......                ......       "
};
