/* XPM */
static char *fbf85079837e47aaf6b382c4a10644edBCfGrVep28IbgCz4[] = {
/* columns rows colors chars-per-pixel */
"102 32 2 1 ",
"  c None",
". c white",
/* pixels */
"                                                                                                      ",
"                                                                                                      ",
"                                                                                                      ",
"                                                                                                      ",
"                                                                                                      ",
"                                                                                                      ",
"                                                                                                      ",
"                     ....             ....                 ....                                       ",
"                  ..........        ...............      .........   .......    ........              ",
"                 ............      ................     ...........  ........   .......               ",
"                ..............    .................    .............  .......  ........               ",
"               ...............    .................   ..............  .......  .......                ",
"               ................  ..................   ............    ........ .......                ",
"              .......    ......  ..................   ........  .      ...............                ",
"              .................  ........   .......    ..........      ..............                 ",
"              .................. .......    .......    ...........      .............                 ",
"              .................. .......    .......     ...........     ............                  ",
"              .................. .......    .......       ..........    ............                  ",
"              ........    .      ..................     ..  ........     ...........                  ",
"               .............     ..................    .............     ..........                   ",
"               ..............     .................   ..............      .........                   ",
"                ..............    .................   ..............      ........                    ",
"                 .............     ................    ............       ........                    ",
"                  ...........       ...............     ..........        ........                    ",
"                    ......            .....  ......       ......         ........                     ",
"                                                                      ...........                     ",
"                                                                      ..........                      ",
"                                                                      ..........                      ",
"                                                                      .........                       ",
"                                                                      ........                        ",
"                                                                       .....                          ",
"                                                                                                      "
};
