/* XPM */
static char *_de888919e6f41bdc9fd5b7c03c1ffday8R8wdkPLnaPFHip[] = {
/* columns rows colors chars-per-pixel */
"112 50 17 1 ",
"  c #7EAA92",
". c #88B09A",
"X c #92B6A2",
"o c #9BBCAA",
"O c #A4C1B1",
"+ c #ADC7B8",
"@ c #B5CDBF",
"# c #BDD2C6",
"$ c #C5D7CD",
"% c #CDDDD4",
"& c #D5E2DA",
"* c #DCE7E1",
"= c #E4ECE7",
"- c #EBF1ED",
"; c #F2F6F3",
": c #F9FBF9",
"> c white",
/* pixels */
"                                                                                                                ",
"                                                                                                                ",
"                                                                                                                ",
"                                                                                                                ",
"                                                                                                                ",
"                                                oO+$OOX                                                         ",
"      ========================%             X#=>>>>>>>>:*@.         @==========%            +==========&        ",
"      >>>>>>>>>>>>>>>>>>>>>>>>=           o*>>>>>>>>>>>>>>:&.       o>>>>>>>>>>>.           *>>>>>>>>>>$        ",
"      >>>>>>>>>>>>>>>>>>>>>>>>=         .%>>>>>>>>>>>>>>>>>>:#       ->>>>>>>>>>@          .>>>>>>>>>>>X        ",
"      >>>>>>>>>>>>>>>>>>>>>>>>=        o;>>>>>>>>>>>>>>>>>>>>>*.     #>>>>>>>>>>*          @>>>>>>>>>>-         ",
"      >>>>>>>>>>>>>>>>>>>>>>>>=       o:>>>>>>>>>>>>>>>>>>>>>>>-.    .>>>>>>>>>>>.         *>>>>>>>>>>@         ",
"      >>>>>>>>>>>>>>>>>>>>>>>>=      o:>>>>>>>>>>>>>>>>>>>>>>>>>-.    *>>>>>>>>>>@        .>>>>>>>>>>>.         ",
"      >>>>>>>>>>>>>>>>>>>>>>>>=     .:>>>>>>>>>>>>>>>>>>>>>>>>>>>*    @>>>>>>>>>>*        @>>>>>>>>>>&          ",
"      >>>>>>>>>>>>>>>>>>>>>>>>=     *>>>>>>>>>>>>>>>>>>>>>>>>>>>>>#    :>>>>>>>>>>.       *>>>>>>>>>>+          ",
"      >>>>>>>>>>>>>>>>>>>>>>>>=    O>>>>>>>>>>>>>>>>>>>>>>>>>>>>>>:.   &>>>>>>>>>>@      .>>>>>>>>>>;           ",
"      >>>>>>>>>>>>>>>>>>>>>>>>=    ;>>>>>>>>>>>>>*$#$->>>>>>>>>>>>>$   o>>>>>>>>>>*      @>>>>>>>>>>%           ",
"      >>>>>>>>>>O                 O>>>>>>>>>>>>*X     O->>>>>>>>>>>:.   ;>>>>>>>>>>.     *>>>>>>>>>>o           ",
"      >>>>>>>>>>O                 &>>>>>>>>>>>&        .->>>>>>>>>>>@   #>>>>>>>>>>@    .>>>>>>>>>>-            ",
"      >>>>>>>>>>O                 :>>>>>>>>>>*          .:>>>>>>>>>>*   X>>>>>>>>>>*    @>>>>>>>>>>#            ",
"      >>>>>>>>>>O                o>>>>>>>>>>>X           @>>>>>>>>>>:    =>>>>>>>>>>.   *>>>>>>>>>>.            ",
"      >>>>>>>>>>&$$$$$$$$$$$$O   +>>>>>>>>>>*             :>>>>>>>>>>.   @>>>>>>>>>>@  .>>>>>>>>>>*             ",
"      >>>>>>>>>>>>>>>>>>>>>>>$   $>>>>>>>>>>#             *>>>>>>>>>>O   .:>>>>>>>>>*  @>>>>>>>>>>@             ",
"      >>>>>>>>>>>>>>>>>>>>>>>$   $>>>>>>>>>>O             $>>>>>>>>>>O    &>>>>>>>>>>. *>>>>>>>>>:              ",
"      >>>>>>>>>>>>>>>>>>>>>>>$   $>>>>>>>>>>O             $>>>>>>>>>>O    +>>>>>>>>>>@.>>>>>>>>>>&              ",
"      >>>>>>>>>>>>>>>>>>>>>>>$   $>>>>>>>>>>+             %>>>>>>>>>>O     ;>>>>>>>>>*@>>>>>>>>>>o              ",
"      >>>>>>>>>>>>>>>>>>>>>>>$   #>>>>>>>>>>%             ->>>>>>>>>>X     %>>>>>>>>>>=>>>>>>>>>;               ",
"      >>>>>>>>>>>>>>>>>>>>>>>$   O>>>>>>>>>>;            X>>>>>>>>>>>      X>>>>>>>>>>>>>>>>>>>>#               ",
"      >>>>>>>>>>>>>>>>>>>>>>>$   .>>>>>>>>>>>#           *>>>>>>>>>>=       ->>>>>>>>>>>>>>>>>>>X               ",
"      >>>>>>>>>>>>>>>>>>>>>>>$    ->>>>>>>>>>:o         @>>>>>>>>>>>$       @>>>>>>>>>>>>>>>>>>=                ",
"      >>>>>>>>>>#OOOOOOOOOOOOX    #>>>>>>>>>>>:o       #>>>>>>>>>>>>o       .>>>>>>>>>>>>>>>>>>@                ",
"      >>>>>>>>>>O                 .:>>>>>>>>>>>>&o   +=>>>>>>>>>>>>=         *>>>>>>>>>>>>>>>>:.                ",
"      >>>>>>>>>>O                  $>>>>>>>>>>>>>>>>>>>>>>>>>>>>>>>O         +>>>>>>>>>>>>>>>>&                 ",
"      >>>>>>>>>>O                  .:>>>>>>>>>>>>>>>>>>>>>>>>>>>>>=           :>>>>>>>>>>>>>>>+                 ",
"      >>>>>>>>>>O                   +>>>>>>>>>>>>>>>>>>>>>>>>>>>>:X           %>>>>>>>>>>>>>>;                  ",
"      >>>>>>>>>>O                    %>>>>>>>>>>>>>>>>>>>>>>>>>>>+            o>>>>>>>>>>>>>>%                  ",
"      >>>>>>>>>>O                     &>>>>>>>>>>>>>>>>>>>>>>>>>@              ;>>>>>>>>>>>>>X                  ",
"      >>>>>>>>>>O                      &>>>>>>>>>>>>>>>>>>>>>>>@               #>>>>>>>>>>>>-                   ",
"      >>>>>>>>>>O                       @:>>>>>>>>>>>>>>>>>>>;o                X>>>>>>>>>>>>@                   ",
"      >>>>>>>>>>O                        X&>>>>>>>>>>>>>>>>:$.                  *>>>>>>>>>>>.                   ",
"      >>>>>>>>>>O                          X&:>>>>>>>>>>>;$.                    @>>>>>>>>>>*                    ",
"      OOOOOOOOOO.                             O$*=====%#o                        OOOOOOOOOOX                    ",
"                                                                                                                ",
"                                                                                                                ",
"                                                                                                                ",
"                                                                                                                ",
"                                                                                                                ",
"                                                                                                                ",
"                                                                                                                ",
"                                                                                                                ",
"                                                                                                                "
};
