/* XPM */
static char *c2ceb250d476496f8ac992bbec17fd92dqpBTEfXmkrT7x2f[] = {
/* columns rows colors chars-per-pixel */
"102 32 2 1 ",
"  c None",
". c white",
/* pixels */
"                                                                                                      ",
"                .......                                                         .......               ",
"                .......                                                         .......               ",
"                .......                                                         .......               ",
"                .......                                                         .......               ",
"                .......                                                         .......               ",
"                .......                                                         .......               ",
"                .......  ...            ...                      ..        ...  .......               ",
"                ..............       ................   ............    ...............               ",
"                ...............     .................   ............   ................               ",
"                ...............     .................   ............  .................               ",
"                ................   ..................   ............  .................               ",
"                ................   ..................   ............ ..................               ",
"                ................  ...................   ............ ..................               ",
"                .......  .......  ........   ........   ........     ........   .......               ",
"                .......  .......  .......    ........   .......      .......    .......               ",
"                .......  .......  .......    ........   .......      .......    .......               ",
"                .......  .......  ........   ........   .......      ........   .......               ",
"                .......  .......  ...................   .......      ..................               ",
"                .......  .......   ..................   .......      ..................               ",
"                .......  .......   ..................   .......       .................               ",
"                .......  .......   ..................   .......       .................               ",
"                .......  .......    .................   .......        ................               ",
"                .......  .......     ................   .......         ...............               ",
"                ......   .......       .....  ......    ......            .....  ......               ",
"                                                                                                      ",
"                                                                                                      ",
"                                                                                                      ",
"                                                                                                      ",
"                                                                                                      ",
"                                                                                                      ",
"                                                                                                      "
};
