/* XPM */
static char *c3e04a211e854c06c008cf8e9efd6147h5gRM8U7FA5dDB3x[] = {
/* columns rows colors chars-per-pixel */
"157 50 17 1 ",
"  c #7EAA92",
". c #88B09A",
"X c #92B6A2",
"o c #9BBCAA",
"O c #A4C1B1",
"+ c #ADC7B8",
"@ c #B5CDBF",
"# c #BDD2C6",
"$ c #C5D7CD",
"% c #CDDDD4",
"& c #D5E2DA",
"* c #DCE7E1",
"= c #E4ECE7",
"- c #EBF1ED",
"; c #F2F6F3",
": c #F9FBF9",
"> c white",
/* pixels */
"                                                                                                                                                             ",
"                                                                                                                                                             ",
"                                                                                                                                                             ",
"                                                                                                                                                             ",
"                                                                                                                                                             ",
"                                                                                                                                                             ",
"                                                                                                                                                             ",
"                                                                                                                                                             ",
"     @=========%                 %========================  ===========O            *==========O  ========================%    %=========%                   ",
"     $>>>>>>>>>=                 =>>>>>>>>>>>>>>>>>>>>>>>>  &>>>>>>>>>>&           o>>>>>>>>>>>.  >>>>>>>>>>>>>>>>>>>>>>>>=    =>>>>>>>>>=                   ",
"     $>>>>>>>>>=                 =>>>>>>>>>>>>>>>>>>>>>>>>  +>>>>>>>>>>:           %>>>>>>>>>>&   >>>>>>>>>>>>>>>>>>>>>>>>=    =>>>>>>>>>=                   ",
"     $>>>>>>>>>=                 =>>>>>>>>>>>>>>>>>>>>>>>>   ;>>>>>>>>>>+          ;>>>>>>>>>>+   >>>>>>>>>>>>>>>>>>>>>>>>=    =>>>>>>>>>=                   ",
"     $>>>>>>>>>=                 =>>>>>>>>>>>>>>>>>>>>>>>>   %>>>>>>>>>>&         o>>>>>>>>>>:    >>>>>>>>>>>>>>>>>>>>>>>>=    =>>>>>>>>>=                   ",
"     $>>>>>>>>>=                 =>>>>>>>>>>>>>>>>>>>>>>>>   X>>>>>>>>>>:         %>>>>>>>>>>%    >>>>>>>>>>>>>>>>>>>>>>>>=    =>>>>>>>>>=                   ",
"     $>>>>>>>>>=                 =>>>>>>>>>>>>>>>>>>>>>>>>    ->>>>>>>>>>+        ;>>>>>>>>>>o    >>>>>>>>>>>>>>>>>>>>>>>>=    =>>>>>>>>>=                   ",
"     $>>>>>>>>>=                 =>>>>>>>>>>>>>>>>>>>>>>>>    #>>>>>>>>>>&       o>>>>>>>>>>-     >>>>>>>>>>>>>>>>>>>>>>>>=    =>>>>>>>>>=                   ",
"     $>>>>>>>>>=                 =>>>>>>>>>>>>>>>>>>>>>>>>    .>>>>>>>>>>:       %>>>>>>>>>>#     >>>>>>>>>>>>>>>>>>>>>>>>=    =>>>>>>>>>=                   ",
"     $>>>>>>>>>=                 =>>>>>>>>>>>>>>>>>>>>>>>>     *>>>>>>>>>>+      ;>>>>>>>>>>X     >>>>>>>>>>>>>>>>>>>>>>>>=    =>>>>>>>>>=                   ",
"     $>>>>>>>>>=                 =>>>>>>>>>$                   +>>>>>>>>>>&     o>>>>>>>>>>*      >>>>>>>>>>$                  =>>>>>>>>>=                   ",
"     $>>>>>>>>>=                 =>>>>>>>>>$                    :>>>>>>>>>:     %>>>>>>>>>>@      >>>>>>>>>>$                  =>>>>>>>>>=                   ",
"     $>>>>>>>>>=                 =>>>>>>>>>$                    &>>>>>>>>>>+    ;>>>>>>>>>:       >>>>>>>>>>$                  =>>>>>>>>>=                   ",
"     $>>>>>>>>>=                 =>>>>>>>>>>>>>>>>>>>>>>>       o>>>>>>>>>>%   o>>>>>>>>>>&       >>>>>>>>>>>>>>>>>>>>>>>=     =>>>>>>>>>=                   ",
"     $>>>>>>>>>=                 =>>>>>>>>>>>>>>>>>>>>>>>        ;>>>>>>>>>;   %>>>>>>>>>>o       >>>>>>>>>>>>>>>>>>>>>>>=     =>>>>>>>>>=                   ",
"     $>>>>>>>>>=                 =>>>>>>>>>>>>>>>>>>>>>>>        #>>>>>>>>>>o  ;>>>>>>>>>;        >>>>>>>>>>>>>>>>>>>>>>>=     =>>>>>>>>>=                   ",
"     $>>>>>>>>>=                 =>>>>>>>>>>>>>>>>>>>>>>>        X>>>>>>>>>>% o>>>>>>>>>>$        >>>>>>>>>>>>>>>>>>>>>>>=     =>>>>>>>>>=                   ",
"     $>>>>>>>>>=                 =>>>>>>>>>>>>>>>>>>>>>>>         *>>>>>>>>>; %>>>>>>>>>>X        >>>>>>>>>>>>>>>>>>>>>>>=     =>>>>>>>>>=                   ",
"     $>>>>>>>>>=                 =>>>>>>>>>>>>>>>>>>>>>>>         @>>>>>>>>>>o;>>>>>>>>>=         >>>>>>>>>>>>>>>>>>>>>>>=     =>>>>>>>>>=                   ",
"     $>>>>>>>>>=                 =>>>>>>>>>>>>>>>>>>>>>>>         .:>>>>>>>>>=>>>>>>>>>>@         >>>>>>>>>>>>>>>>>>>>>>>=     =>>>>>>>>>=                   ",
"     $>>>>>>>>>=                 =>>>>>>>>>>>>>>>>>>>>>>>          &>>>>>>>>>>>>>>>>>>>>.         >>>>>>>>>>>>>>>>>>>>>>>=     =>>>>>>>>>=                   ",
"     $>>>>>>>>>=                 =>>>>>>>>>;=============          O>>>>>>>>>>>>>>>>>>>&          >>>>>>>>>>;============%     =>>>>>>>>>=                   ",
"     $>>>>>>>>>=                 =>>>>>>>>>$                        ;>>>>>>>>>>>>>>>>>>+          >>>>>>>>>>$                  =>>>>>>>>>=                   ",
"     $>>>>>>>>>=                 =>>>>>>>>>$                        $>>>>>>>>>>>>>>>>>;           >>>>>>>>>>$                  =>>>>>>>>>=                   ",
"     $>>>>>>>>>;$$$$$$$$$$$$$$X  =>>>>>>>>>=$$$$$$$$$$$$$$          X>>>>>>>>>>>>>>>>>%           >>>>>>>>>>=$$$$$$$$$$$$$@    =>>>>>>>>>;$$$$$$$$$$$$$$     ",
"     $>>>>>>>>>>>>>>>>>>>>>>>>O  =>>>>>>>>>>>>>>>>>>>>>>>>           ->>>>>>>>>>>>>>>>X           >>>>>>>>>>>>>>>>>>>>>>>>=    =>>>>>>>>>>>>>>>>>>>>>>>>     ",
"     $>>>>>>>>>>>>>>>>>>>>>>>>O  =>>>>>>>>>>>>>>>>>>>>>>>>           @>>>>>>>>>>>>>>>-            >>>>>>>>>>>>>>>>>>>>>>>>=    =>>>>>>>>>>>>>>>>>>>>>>>>     ",
"     $>>>>>>>>>>>>>>>>>>>>>>>>O  =>>>>>>>>>>>>>>>>>>>>>>>>           .>>>>>>>>>>>>>>>#            >>>>>>>>>>>>>>>>>>>>>>>>=    =>>>>>>>>>>>>>>>>>>>>>>>>     ",
"     $>>>>>>>>>>>>>>>>>>>>>>>>O  =>>>>>>>>>>>>>>>>>>>>>>>>            &>>>>>>>>>>>>>>.            >>>>>>>>>>>>>>>>>>>>>>>>=    =>>>>>>>>>>>>>>>>>>>>>>>>     ",
"     $>>>>>>>>>>>>>>>>>>>>>>>>O  =>>>>>>>>>>>>>>>>>>>>>>>>            +>>>>>>>>>>>>>*             >>>>>>>>>>>>>>>>>>>>>>>>=    =>>>>>>>>>>>>>>>>>>>>>>>>     ",
"     $>>>>>>>>>>>>>>>>>>>>>>>>O  =>>>>>>>>>>>>>>>>>>>>>>>>             :>>>>>>>>>>>>+             >>>>>>>>>>>>>>>>>>>>>>>>=    =>>>>>>>>>>>>>>>>>>>>>>>>     ",
"     $>>>>>>>>>>>>>>>>>>>>>>>>O  =>>>>>>>>>>>>>>>>>>>>>>>>             %>>>>>>>>>>>:              >>>>>>>>>>>>>>>>>>>>>>>>=    =>>>>>>>>>>>>>>>>>>>>>>>>     ",
"     $>>>>>>>>>>>>>>>>>>>>>>>>O  =>>>>>>>>>>>>>>>>>>>>>>>>             o>>>>>>>>>>>&              >>>>>>>>>>>>>>>>>>>>>>>>=    =>>>>>>>>>>>>>>>>>>>>>>>>     ",
"     $>>>>>>>>>>>>>>>>>>>>>>>>O  =>>>>>>>>>>>>>>>>>>>>>>>>              ->>>>>>>>>>o              >>>>>>>>>>>>>>>>>>>>>>>>=    =>>>>>>>>>>>>>>>>>>>>>>>>     ",
"     XOOOOOOOOOOOOOOOOOOOOOOOO.  oOOOOOOOOOOOOOOOOOOOOOOOO              XOOOOOOOOOO               OOOOOOOOOOOOOOOOOOOOOOOOo    oOOOOOOOOOOOOOOOOOOOOOOOO     ",
"                                                                                                                                                             ",
"                                                                                                                                                             ",
"                                                                                                                                                             ",
"                                                                                                                                                             ",
"                                                                                                                                                             ",
"                                                                                                                                                             ",
"                                                                                                                                                             "
};
