/* XPM */
static char *d1d32bc0c0a14bc9e2ca536cb0575478wEYZopCVGWECBNy3[] = {
/* columns rows colors chars-per-pixel */
"102 32 2 1 ",
"  c None",
". c white",
/* pixels */
"                                                                                                      ",
"                                                                                                      ",
"                                                                                            .....     ",
"                                                                                           ......     ",
"                                                                                           ......     ",
"                                                                                           ......     ",
"                                                                                           ......     ",
"                                                                                           ......     ",
"    .....  ....          .....        .....  ...  ...... ....  .....        .....  .....   ......     ",
"    ............       .........     ...........  ...................      ..............  ......     ",
"    .............     ...........    ...........  ....................    ...............  ......     ",
"    .............    .............   ...........  ....................   ................  ......     ",
"    ..............  ...............  ...........  .....................  ................  ......     ",
"    ..............  ...............  ...........  .....................  ................  ......     ",
"    ......  ......  ......   ......  .......      ...... .............. .......   .......  ......     ",
"    ......  ......  ......   ....... .......      ...... ......  ...... .......   .......  ......     ",
"    ......  ......  ......   ......  .......      ...... ......  ...... .......   .......  ......     ",
"    ......  ......  ...............  .......      ...... ......  ......  ................  ......     ",
"    ......  ......  ...............  .......      ...... ......  ......  ................  ......     ",
"    ......  ......   .............   .......      ...... ......  ......  ................  ......     ",
"    ......  ......   .............   .......      ...... ......  ......   ...............  ......     ",
"    ......  ......    ...........    .......      ...... ......  ......    ..............  ......     ",
"    ......  ......      .......      .......      ...... ......  ......     .............  ......     ",
"                                                                                                      ",
"                                                                                                      ",
"                                                                                                      ",
"                                                                                                      ",
"                                                                                                      ",
"                                                                                                      ",
"                                                                                                      ",
"                                                                                                      ",
"                                                                                                      "
};
